<svg xmlns="http://www.w3.org/2000/svg" width="400" height="240" viewBox="0 0 400 240" fill="none">
  <rect width="400" height="240" fill="#f8f8f4"/>
  <path d="M0 20h400" stroke="#e1e1dc" stroke-width="0.8"/>
  <path d="M0 40h400" stroke="#e1e1dc" stroke-width="0.8"/>
  <path d="M0 60h400" stroke="#e1e1dc" stroke-width="0.8"/>
  <path d="M0 80h400" stroke="#e1e1dc" stroke-width="0.8"/>
  <path d="M0 100h400" stroke="#e1e1dc" stroke-width="0.8"/>
  <path d="M0 120h400" stroke="#e1e1dc" stroke-width="0.8"/>
  <path d="M0 140h400" stroke="#e1e1dc" stroke-width="0.8"/>
  <path d="M0 160h400" stroke="#e1e1dc" stroke-width="0.8"/>
  <path d="M0 180h400" stroke="#e1e1dc" stroke-width="0.8"/>
  <path d="M0 200h400" stroke="#e1e1dc" stroke-width="0.8"/>
  <path d="M0 220h400" stroke="#e1e1dc" stroke-width="0.8"/>
  <path d="M20 0v240" stroke="#e1e1dc" stroke-width="0.8"/>
  <path d="M40 0v240" stroke="#e1e1dc" stroke-width="0.8"/>
  <path d="M60 0v240" stroke="#e1e1dc" stroke-width="0.8"/>
  <path d="M80 0v240" stroke="#e1e1dc" stroke-width="0.8"/>
  <path d="M100 0v240" stroke="#e1e1dc" stroke-width="0.8"/>
  <path d="M120 0v240" stroke="#e1e1dc" stroke-width="0.8"/>
  <path d="M140 0v240" stroke="#e1e1dc" stroke-width="0.8"/>
  <path d="M160 0v240" stroke="#e1e1dc" stroke-width="0.8"/>
  <path d="M180 0v240" stroke="#e1e1dc" stroke-width="0.8"/>
  <path d="M200 0v240" stroke="#e1e1dc" stroke-width="0.8"/>
  <path d="M220 0v240" stroke="#e1e1dc" stroke-width="0.8"/>
  <path d="M240 0v240" stroke="#e1e1dc" stroke-width="0.8"/>
  <path d="M260 0v240" stroke="#e1e1dc" stroke-width="0.8"/>
  <path d="M280 0v240" stroke="#e1e1dc" stroke-width="0.8"/>
  <path d="M300 0v240" stroke="#e1e1dc" stroke-width="0.8"/>
  <path d="M320 0v240" stroke="#e1e1dc" stroke-width="0.8"/>
  <path d="M340 0v240" stroke="#e1e1dc" stroke-width="0.8"/>
  <path d="M360 0v240" stroke="#e1e1dc" stroke-width="0.8"/>
  <path d="M380 0v240" stroke="#e1e1dc" stroke-width="0.8"/>
</svg>
